<?xml version="1.0" encoding="UTF-8"?>
<svg version="1.1" xmlns="http://www.w3.org/2000/svg" width="500" height="500">
<path d="M0 0 C165 0 330 0 500 0 C500 165 500 330 500 500 C335 500 170 500 0 500 C0 335 0 170 0 0 Z " fill="#FEFEFE" transform="translate(0,0)"/>
<path d="M0 0 C4.47354687 3.71840299 7.95075394 8.20898304 11.46582031 12.80615234 C18.22520159 21.56292418 26.16653021 29.46720661 37.52441406 31.26708984 C53.74916082 32.38493657 64.56705324 29.73261412 77.54003906 19.41943359 C89.34822425 10.90332098 103.38689581 9.00099723 117.52441406 10.26708984 C129.20211196 12.51982614 139.72444283 17.22650732 146.52441406 27.26708984 C154.45724783 41.52140052 152.79572726 59.43112101 152.71972656 75.16552734 C152.71598931 77.4548022 152.71314571 79.74407867 152.71115112 82.03335571 C152.70357074 88.01404353 152.68397122 93.99463184 152.66174316 99.97528076 C152.63753515 107.17500757 152.62847708 114.37476794 152.61683655 121.57452393 C152.59754289 132.47211478 152.55918131 143.36948796 152.52441406 154.26708984 C137.34441406 154.26708984 122.16441406 154.26708984 106.52441406 154.26708984 C106.49863281 147.80244141 106.47285156 141.33779297 106.44628906 134.67724609 C106.42110961 130.57108715 106.39476819 126.46500107 106.36425781 122.35888672 C106.31598701 115.84773523 106.27191811 109.33675247 106.25341797 102.82543945 C106.2382254 97.57326212 106.20373333 92.32152747 106.15610504 87.06954765 C106.14131811 85.07023412 106.1333746 83.07085737 106.13253021 81.07148933 C106.13015072 78.26129609 106.10299227 75.45231655 106.0703125 72.64233398 C106.07534286 71.82377426 106.08037323 71.00521454 106.08555603 70.16184998 C105.96183586 63.24292353 103.92676951 57.41500388 99.71191406 51.89208984 C92.70851188 46.68956251 86.05593251 46.50368916 77.52441406 47.26708984 C72.17105802 48.3362116 67.93244367 49.81043574 64.52441406 54.26708984 C63.98816406 54.96833984 63.45191406 55.66958984 62.89941406 56.39208984 C58.14148691 66.34048298 59.17793184 78.07765426 59.11035156 88.83740234 C59.09161553 90.72883933 59.07204035 92.62026818 59.05166626 94.51168823 C59.00059618 99.45991183 58.96083685 104.40816245 58.92352295 109.35650635 C58.87624172 115.30975172 58.81475269 121.26286565 58.75567627 127.21600342 C58.66777075 136.23297843 58.59778708 145.24993217 58.52441406 154.26708984 C43.67441406 154.26708984 28.82441406 154.26708984 13.52441406 154.26708984 C13.19441406 144.69708984 12.86441406 135.12708984 12.52441406 125.26708984 C10.87441406 124.93708984 9.22441406 124.60708984 7.52441406 124.26708984 C7.00105469 124.97994141 6.47769531 125.69279297 5.93847656 126.42724609 C1.27347062 131.91504434 -4.71080863 135.99719271 -10.47558594 140.26708984 C-11.26835937 140.86134766 -12.06113281 141.45560547 -12.87792969 142.06787109 C-26.92898845 151.49453077 -44.62448703 154.47225213 -61.1484375 154.56225586 C-62.59873288 154.57367171 -64.04898981 154.59395474 -65.49902344 154.6237793 C-79.27943929 154.90613901 -92.55254453 153.14627002 -104.85058594 146.45458984 C-105.50994141 146.10984619 -106.16929687 145.76510254 -106.84863281 145.40991211 C-112.37634414 142.45859611 -117.5428574 139.13834515 -122.47558594 135.26708984 C-123.1575 134.74888672 -123.83941406 134.23068359 -124.54199219 133.69677734 C-140.7016896 120.60457631 -151.23020275 97.70234491 -153.47558594 77.26708984 C-154.33573908 61.45350506 -153.08829514 44.83746604 -146.47558594 30.26708984 C-146.04375 29.28482422 -145.61191406 28.30255859 -145.16699219 27.29052734 C-141.81319948 20.11032074 -137.75491888 14.16139885 -132.47558594 8.26708984 C-131.73566406 7.43306641 -130.99574219 6.59904297 -130.23339844 5.73974609 C-96.89178131 -29.73354819 -36.8869753 -28.85635093 0 0 Z " fill="#020202" transform="translate(241.4755859375,195.73291015625)"/>
<path d="M0 0 C10.95453167 7.02378795 17.86790127 18.76090548 20.75 31.25 C20.8325 32.4875 20.915 33.725 21 35 C21.11214844 36.45792969 21.11214844 36.45792969 21.2265625 37.9453125 C21.8362109 52.03139925 18.34930554 64.58678836 9.32421875 75.4765625 C2.9405218 82.40743348 -3.43694849 87.90615808 -13 89.5 C-16.54850232 88.90858295 -19.28403816 87.55176087 -22.51953125 86.0234375 C-35.86362643 80.51768484 -52.26927168 82.11002879 -65.375 87.375 C-69.56749613 89.24014419 -73.28969385 91.27910882 -77 94 C-86.93921725 101.14926153 -95.49626021 105.33968641 -108 104 C-115.318051 102.7203986 -120.50943781 99.90740443 -126 95 C-126.8394516 94.25533981 -127.6789032 93.51067963 -128.54379272 92.74345398 C-133.46780035 87.92508213 -136.60486132 84.36174182 -137.13525391 77.33520508 C-137.13369316 74.89607398 -137.07850989 72.45653139 -136.9765625 70.01953125 C-136.96241302 68.72552902 -136.94826355 67.43152679 -136.9336853 66.09831238 C-136.89590799 62.69500353 -136.7980775 59.2961183 -136.68664551 55.89453125 C-136.58343943 52.40882273 -136.53793417 48.92236155 -136.48828125 45.43554688 C-136.38706761 38.61982045 -136.19140542 31.81615978 -136 25 C-120.82 25 -105.64 25 -90 25 C-89.67 42.49 -89.34 59.98 -89 78 C-86.03 72.39 -83.06 66.78 -80 61 C-77.27212005 57.87425005 -75.03892047 55.45184787 -71.9375 52.875 C-70.95426758 52.00488281 -70.95426758 52.00488281 -69.95117188 51.1171875 C-67.9872375 49.3869169 -65.9965362 47.69246533 -64 46 C-59.20110361 41.84399074 -54.46228108 37.63457938 -49.8125 33.3125 C-48.69796092 32.27990015 -47.58337613 31.24734964 -46.46875 30.21484375 C-45.90285156 29.69003418 -45.33695312 29.16522461 -44.75390625 28.62451172 C-42.95306748 26.95652993 -41.1489468 25.29216993 -39.34375 23.62890625 C-38.75231201 23.08387451 -38.16087402 22.53884277 -37.55151367 21.97729492 C-36.41384843 20.92907128 -35.2759978 19.88104879 -34.13793945 18.83325195 C-32.06028544 16.9172983 -29.99868182 14.99868182 -28 13 C-27.278125 12.773125 -26.55625 12.54625 -25.8125 12.3125 C-22.99038068 10.99551098 -21.69172034 9.83430164 -19.5625 7.625 C-13.77060932 1.67153297 -8.56906958 -2.26828312 0 0 Z " fill="#FBFBFB" transform="translate(391,116)"/>
<path d="M0 0 C1.50832397 0.00858032 1.50832397 0.00858032 3.04711914 0.01733398 C13.73239557 0.27427894 22.00180515 3.07345191 29.81640625 10.546875 C40.47997568 22.47480501 42.35270064 34.76918621 41.74169922 50.23876953 C41.35423624 55.12798215 39.80578815 59.18759204 37.5625 63.5 C36.90894531 64.80517578 36.90894531 64.80517578 36.2421875 66.13671875 C30.31223569 76.97589295 22.31466028 81.82684128 10.9375 85.75 C-1.32197457 88.42567897 -14.52535469 86.86324151 -25.51171875 80.8046875 C-34.60945187 74.67333667 -41.7668682 65.70021385 -43.9921875 54.77734375 C-45.91812006 40.6031559 -44.46951839 26.63818603 -36.1640625 14.6640625 C-26.99512184 3.06357956 -14.25059704 -0.0947561 0 0 Z " fill="#FCFCFC" transform="translate(179.4375,219.5)"/>
<path d="M0 0 C10.95453167 7.02378795 17.86790127 18.76090548 20.75 31.25 C20.8325 32.4875 20.915 33.725 21 35 C21.11214844 36.45792969 21.11214844 36.45792969 21.2265625 37.9453125 C21.8362109 52.03139925 18.34930554 64.58678836 9.32421875 75.4765625 C2.9405218 82.40743348 -3.43694849 87.90615808 -13 89.5 C-16.54850232 88.90858295 -19.28403816 87.55176087 -22.51953125 86.0234375 C-35.86362643 80.51768484 -52.26927168 82.11002879 -65.375 87.375 C-69.56749613 89.24014419 -73.28969385 91.27910882 -77 94 C-86.93921725 101.14926153 -95.49626021 105.33968641 -108 104 C-115.318051 102.7203986 -120.50943781 99.90740443 -126 95 C-126.8394516 94.25533981 -127.6789032 93.51067963 -128.54379272 92.74345398 C-133.46780035 87.92508213 -136.60486132 84.36174182 -137.13525391 77.33520508 C-137.13369316 74.89607398 -137.07850989 72.45653139 -136.9765625 70.01953125 C-136.96241302 68.72552902 -136.94826355 67.43152679 -136.9336853 66.09831238 C-136.89590799 62.69500353 -136.7980775 59.2961183 -136.68664551 55.89453125 C-136.58343943 52.40882273 -136.53793417 48.92236155 -136.48828125 45.43554688 C-136.38706761 38.61982045 -136.19140542 31.81615978 -136 25 C-120.82 25 -105.64 25 -90 25 C-90 49.09 -90 73.18 -90 98 C-84.03676671 94.0325033 -84.03676671 94.0325033 -78.1015625 90.0234375 C-63.55880622 80.34355871 -47.46244905 76.96524385 -30.1875 79.8125 C-26.91250622 80.47129036 -23.95558337 81.34294262 -20.875 82.625 C-15.53072059 84.72143481 -10.83408715 85.18666533 -5.453125 82.93359375 C4.44798851 77.42797457 11.51898442 68.75192819 14.97265625 57.9609375 C18.88736386 42.70268181 17.61163037 28.01926345 9.54296875 14.3125 C6.51663473 9.77682977 2.99054753 6.25762864 -2 4 C-7.76027019 3.2668747 -10.41943319 4.59120609 -15 8 C-15.66 8 -16.32 8 -17 8 C-16.77347501 4.82865008 -15.9392256 3.94390056 -13.5625 1.75 C-8.8018369 -0.58857135 -5.18877019 -1.37349799 0 0 Z " fill="#020201" transform="translate(391,116)"/>
<path d="M0 0 C0.99 1.485 0.99 1.485 2 3 C0.02 5.31 -1.96 7.62 -4 10 C-3.36191406 10.67546875 -2.72382813 11.3509375 -2.06640625 12.046875 C-1.24011719 12.93890625 -0.41382813 13.8309375 0.4375 14.75 C1.26121094 15.63171875 2.08492188 16.5134375 2.93359375 17.421875 C4.83068018 19.78875032 5.62102932 21.0509191 6 24 C0.0487013 29.48511364 -5.90231465 34.96068626 -12.015625 40.265625 C-15.18764318 43.03801884 -18.30998903 45.86511205 -21.4375 48.6875 C-24.74195595 51.66957 -28.05173252 54.64534393 -31.3828125 57.59765625 C-33.25891345 59.31974891 -35.03700582 61.04578347 -36.8046875 62.87109375 C-43.93649318 70.08165117 -49.93020305 72.79998194 -60 75 C-61.33804687 75.53560547 -61.33804687 75.53560547 -62.703125 76.08203125 C-65.56334822 77.22514767 -67.94921264 77.14189709 -71 77 C-68.99441016 60.52369866 -58.00855136 50.19434132 -46 40 C-41.20177039 35.8431994 -36.46230093 31.63459783 -31.8125 27.3125 C-30.69796092 26.27990015 -29.58337613 25.24734964 -28.46875 24.21484375 C-27.90285156 23.69003418 -27.33695312 23.16522461 -26.75390625 22.62451172 C-24.95306748 20.95652993 -23.1489468 19.29216993 -21.34375 17.62890625 C-20.45659302 16.81135864 -20.45659302 16.81135864 -19.55151367 15.97729492 C-18.41384843 14.92907128 -17.2759978 13.88104879 -16.13793945 12.83325195 C-14.06028544 10.9172983 -11.99868182 8.99868182 -10 7 C-9.236875 6.731875 -8.47375 6.46375 -7.6875 6.1875 C-4.36547026 4.71962639 -2.44140506 2.65066835 0 0 Z " fill="#32302B" transform="translate(373,122)"/>
<path d="M0 0 C10.95453167 7.02378795 17.86790127 18.76090548 20.75 31.25 C20.8325 32.4875 20.915 33.725 21 35 C21.11214844 36.45792969 21.11214844 36.45792969 21.2265625 37.9453125 C21.8362109 52.03139925 18.34930554 64.58678836 9.32421875 75.4765625 C2.9405218 82.40743348 -3.43694849 87.90615808 -13 89.5 C-16.54850232 88.90858295 -19.28403816 87.55176087 -22.51953125 86.0234375 C-35.86362643 80.51768484 -52.26927168 82.11002879 -65.375 87.375 C-69.56749613 89.24014419 -73.28969385 91.27910882 -77 94 C-78.55704951 95.07047154 -80.1199715 96.13243274 -81.6875 97.1875 C-82.43386719 97.69667969 -83.18023437 98.20585937 -83.94921875 98.73046875 C-86 100 -86 100 -89 101 C-89 100.34 -89 99.68 -89 99 C-89.66 99 -90.32 99 -91 99 C-91 74.58 -91 50.16 -91 25 C-90.67 25 -90.34 25 -90 25 C-90 49.09 -90 73.18 -90 98 C-84.03676671 94.0325033 -84.03676671 94.0325033 -78.1015625 90.0234375 C-63.55880622 80.34355871 -47.46244905 76.96524385 -30.1875 79.8125 C-26.91250622 80.47129036 -23.95558337 81.34294262 -20.875 82.625 C-15.53072059 84.72143481 -10.83408715 85.18666533 -5.453125 82.93359375 C4.44798851 77.42797457 11.51898442 68.75192819 14.97265625 57.9609375 C18.88736386 42.70268181 17.61163037 28.01926345 9.54296875 14.3125 C6.51663473 9.77682977 2.99054753 6.25762864 -2 4 C-7.76027019 3.2668747 -10.41943319 4.59120609 -15 8 C-15.66 8 -16.32 8 -17 8 C-16.77347501 4.82865008 -15.9392256 3.94390056 -13.5625 1.75 C-8.8018369 -0.58857135 -5.18877019 -1.37349799 0 0 Z " fill="#292724" transform="translate(391,116)"/>
<path d="M0 0 C1.9375 0.6875 1.9375 0.6875 4 2 C4.8984375 4.31640625 4.8984375 4.31640625 5 7 C3.26171875 9.140625 3.26171875 9.140625 0.6875 11.25 C-0.70275391 12.42175781 -0.70275391 12.42175781 -2.12109375 13.6171875 C-3.07113281 14.40351563 -4.02117187 15.18984375 -5 16 C-6.63276859 17.44963025 -8.25796665 18.90783803 -9.875 20.375 C-10.69226563 21.10847656 -11.50953125 21.84195313 -12.3515625 22.59765625 C-14.27599768 24.34327223 -16.18614406 26.09909175 -18.0859375 27.87109375 C-18.61203613 28.35980957 -19.13813477 28.84852539 -19.68017578 29.35205078 C-21.16995552 30.73803249 -22.6554158 32.1286529 -24.140625 33.51953125 C-26.99110997 35.99228802 -29.82170091 37.9830025 -33 40 C-34.32 38.68 -35.64 37.36 -37 36 C-34.00198939 29.31996665 -27.88868238 24.84666389 -22.44140625 20.15625 C-18.58746537 16.75244942 -14.84635061 13.22735942 -11.09936523 9.70654297 C-7.49795892 6.33710885 -3.81834647 3.12199149 0 0 Z " fill="#F2F2F1" transform="translate(359,149)"/>
<path d="M0 0 C2.475 2.475 2.475 2.475 5 5 C3.88121617 6.17262904 2.75476949 7.33795138 1.625 8.5 C0.99851562 9.1496875 0.37203125 9.799375 -0.2734375 10.46875 C-2 12 -2 12 -4 12 C-4.26167969 12.598125 -4.52335937 13.19625 -4.79296875 13.8125 C-6.08027253 16.14547772 -7.26547461 17.31679283 -9.3125 19 C-13.78682485 22.77777245 -18.06791876 26.73673707 -22.34301758 30.73632812 C-31.22646484 39 -31.22646484 39 -34.1875 39 C-36.50271433 37.72264037 -36.92116604 36.35727597 -38 34 C-37.53851563 33.59910156 -37.07703125 33.19820312 -36.6015625 32.78515625 C-31.01412304 27.91547087 -25.5014813 22.96638282 -20 18 C-18.33359149 16.49971321 -16.66692647 14.99971128 -15 13.5 C-14.18789063 12.76910156 -13.37578125 12.03820312 -12.5390625 11.28515625 C-8.359375 7.5234375 -4.1796875 3.76171875 0 0 Z " fill="#F2F2F1" transform="translate(353,142)"/>
<path d="M0 0 C0.66 0.99 1.32 1.98 2 3 C0.02 5.31 -1.96 7.62 -4 10 C-3.04287109 11.01320312 -3.04287109 11.01320312 -2.06640625 12.046875 C-1.24011719 12.93890625 -0.41382813 13.8309375 0.4375 14.75 C1.26121094 15.63171875 2.08492188 16.5134375 2.93359375 17.421875 C5 20 5 20 6 24 C3.03 26.64 0.06 29.28 -3 32 C-7.91935902 27.88380164 -12.52647956 23.59589638 -17 19 C-16.34 17.68 -15.68 16.36 -15 15 C-12 15 -12 15 -10.24609375 16.71484375 C-9.64925781 17.44832031 -9.05242187 18.18179688 -8.4375 18.9375 C-6.08714476 21.92648955 -6.08714476 21.92648955 -3 24 C-4.66383007 20.93504986 -6.17521727 18.83672936 -8.75 16.4375 C-9.86375 15.2309375 -9.86375 15.2309375 -11 14 C-10.8125 11.6875 -10.8125 11.6875 -10 10 C-8.68 10 -7.36 10 -6 10 C-6 9.34 -6 8.68 -6 8 C-7.65 8.33 -9.3 8.66 -11 9 C-10 7 -10 7 -7.75 6.1875 C-4.37865489 4.73169188 -2.46785493 2.67938535 0 0 Z " fill="#2B2924" transform="translate(373,122)"/>
<path d="M0 0 C0 0.66 0 1.32 0 2 C-1.32 2 -2.64 2 -4 2 C-3.77586639 5.81027131 -2.71347094 7.49425889 0 10 C2.71347094 12.50574111 3.77586639 14.18972869 4 18 C2.8944811 17.06409496 1.79064547 16.12620142 0.6875 15.1875 C-0.23482422 14.40439453 -0.23482422 14.40439453 -1.17578125 13.60546875 C-4.51952278 10.6626898 -4.51952278 10.6626898 -6 9 C-6 8.34 -6 7.68 -6 7 C-7.98 7.99 -7.98 7.99 -10 9 C-8.41332422 12.90285767 -5.86649519 15.33520982 -2.875 18.25 C-1.96492188 19.14203125 -1.05484375 20.0340625 -0.1171875 20.953125 C0.58148438 21.62859375 1.28015625 22.3040625 2 23 C0.62803835 26.1623716 -0.8565122 27.9936218 -3.5 30.1875 C-7.61767108 33.66764459 -11.61719934 37.25926208 -15.60546875 40.88671875 C-22.5323475 47 -22.5323475 47 -25 47 C-21.09672161 38.30288942 -11.52617216 31.54033072 -4 26 C-4.38193107 22.23603725 -4.38193107 22.23603725 -6.8125 19.5 C-7.534375 19.005 -8.25625 18.51 -9 18 C-10.36244796 16.35704805 -11.69864875 14.69175663 -13 13 C-13.66 12.34 -14.32 11.68 -15 11 C-5.93349169 0 -5.93349169 0 0 0 Z " fill="#25231F" transform="translate(367,130)"/>
<path d="M0 0 C0.33 0 0.66 0 1 0 C1 24.09 1 48.18 1 73 C3.97 71.02 6.94 69.04 10 67 C25.57622523 56.68925965 25.57622523 56.68925965 30.4375 57.3125 C30.953125 57.539375 31.46875 57.76625 32 58 C30.515 58.495 30.515 58.495 29 59 C29.33 59.66 29.66 60.32 30 61 C29.34773438 61.24234375 28.69546875 61.4846875 28.0234375 61.734375 C22.89078431 63.70264909 18.47836957 65.7603284 14 69 C12.44247889 70.06978526 10.87962439 71.13183261 9.3125 72.1875 C8.56613281 72.69667969 7.81976563 73.20585937 7.05078125 73.73046875 C5 75 5 75 2 76 C2 75.34 2 74.68 2 74 C1.34 74 0.68 74 0 74 C0 49.58 0 25.16 0 0 Z " fill="#656462" transform="translate(300,141)"/>
<path d="M0 0 C8.34774563 5.35237808 14.67797248 13.6953831 18 23 C18.3813074 25.32597511 18.72460254 27.65912158 19 30 C18.34 30 17.68 30 17 30 C16.46890625 28.83082031 15.9378125 27.66164062 15.390625 26.45703125 C14.67744789 24.9086862 13.96388584 23.36051841 13.25 21.8125 C12.90195312 21.04357422 12.55390625 20.27464844 12.1953125 19.48242188 C8.92327298 12.42329957 5.46482721 6.93261069 -2 4 C-7.76845379 3.19039245 -10.41158966 4.58536905 -15 8 C-15.66 8 -16.32 8 -17 8 C-16.77347501 4.82865008 -15.9392256 3.94390056 -13.5625 1.75 C-8.8018369 -0.58857135 -5.18877019 -1.37349799 0 0 Z " fill="#272826" transform="translate(391,116)"/>
<path d="M0 0 C0 0.66 0 1.32 0 2 C-1.32 2 -2.64 2 -4 2 C-3.77586639 5.81027131 -2.71347094 7.49425889 0 10 C2.71347094 12.50574111 3.77586639 14.18972869 4 18 C2.8944811 17.06409496 1.79064547 16.12620142 0.6875 15.1875 C0.07261719 14.66542969 -0.54226563 14.14335937 -1.17578125 13.60546875 C-4.51952278 10.6626898 -4.51952278 10.6626898 -6 9 C-6 8.34 -6 7.68 -6 7 C-7.98 7.99 -7.98 7.99 -10 9 C-8.62845496 11.95409701 -7.01136276 14.44008376 -5 17 C-6.98 17.99 -6.98 17.99 -9 19 C-9.2475 18.4225 -9.495 17.845 -9.75 17.25 C-11.16683317 14.6997003 -12.87627537 12.98214299 -15 11 C-5.93349169 0 -5.93349169 0 0 0 Z " fill="#1C1B17" transform="translate(367,130)"/>
<path d="M0 0 C0 0.33 0 0.66 0 1 C-1.11375 1.04898438 -2.2275 1.09796875 -3.375 1.1484375 C-13.66513688 1.63947004 -23.79889353 2.56850958 -34 4 C-33.67 3.34 -33.34 2.68 -33 2 C-32.01 2 -31.02 2 -30 2 C-30 1.34 -30 0.68 -30 0 C-20.13319216 -2.49454284 -9.70537086 -3.61130078 0 0 Z " fill="#1F1E1D" transform="translate(362,197)"/>
<path d="M0 0 C3.45201639 1.47721422 5.64961936 3.43794001 8.25 6.125 C8.95640625 6.84945312 9.6628125 7.57390625 10.390625 8.3203125 C11.18726563 9.15175781 11.18726563 9.15175781 12 10 C9.08235 11.9451 7.37462715 12.45276317 4 13 C2.96409662 11.93106782 1.94666058 10.84421512 0.9375 9.75 C0.36902344 9.14671875 -0.19945312 8.5434375 -0.78515625 7.921875 C-2 6 -2 6 -1.74609375 3.890625 C-1 2 -1 2 0 0 Z " fill="#ECECEB" transform="translate(312,180)"/>
<path d="M0 0 C2.4375 0.8125 2.4375 0.8125 5 2 C5.33 2.99 5.66 3.98 6 5 C6.66 5 7.32 5 8 5 C8 5.66 8 6.32 8 7 C6.35 7.33 4.7 7.66 3 8 C3 8.66 3 9.32 3 10 C3.99 10.33 4.98 10.66 6 11 C2.7 11.33 -0.6 11.66 -4 12 C-3.45660208 7.43545749 -2.20536179 4.0271824 0 0 Z " fill="#333230" transform="translate(306,187)"/>
<path d="M0 0 C3 0 3 0 4.75390625 1.6796875 C5.64916016 2.76636719 5.64916016 2.76636719 6.5625 3.875 C7.16191406 4.59429687 7.76132812 5.31359375 8.37890625 6.0546875 C8.91386719 6.69664062 9.44882812 7.33859375 10 8 C10.66 8.66 11.32 9.32 12 10 C11.625 12.125 11.625 12.125 11 14 C8 14 8 14 5.51953125 11.8125 C4.62621094 10.884375 3.73289062 9.95625 2.8125 9 C1.91144531 8.071875 1.01039063 7.14375 0.08203125 6.1875 C-0.60503906 5.465625 -1.29210937 4.74375 -2 4 C-1.34 2.68 -0.68 1.36 0 0 Z " fill="#EAEAE9" transform="translate(358,137)"/>
<path d="M0 0 C3.125 2 3.125 2 5 4 C4.67 4.99 4.34 5.98 4 7 C3.154375 6.505 2.30875 6.01 1.4375 5.5 C-2.48083062 3.790183 -4.76813363 3.4710167 -9 4 C-12.27310553 5.90356987 -12.27310553 5.90356987 -15 8 C-15.66 8 -16.32 8 -17 8 C-16.77347501 4.82865008 -15.9392256 3.94390056 -13.5625 1.75 C-8.9240897 -0.52851734 -5.08431387 -0.87981471 0 0 Z " fill="#292825" transform="translate(391,116)"/>
<path d="M0 0 C0.66 0.33 1.32 0.66 2 1 C-0.13004283 5.79555293 -3.60039486 8.77023324 -7.375 12.3125 C-8.38433594 13.29959961 -8.38433594 13.29959961 -9.4140625 14.30664062 C-10.06890625 14.92345703 -10.72375 15.54027344 -11.3984375 16.17578125 C-11.99317871 16.74208252 -12.58791992 17.30838379 -13.20068359 17.8918457 C-15 19 -15 19 -17.22509766 18.67651367 C-17.81081543 18.45326416 -18.3965332 18.23001465 -19 18 C-18.49549316 17.52578613 -17.99098633 17.05157227 -17.47119141 16.56298828 C-15.1888209 14.41731815 -12.90690525 12.27116491 -10.625 10.125 C-9.8309375 9.37863281 -9.036875 8.63226563 -8.21875 7.86328125 C-7.45820313 7.14785156 -6.69765625 6.43242187 -5.9140625 5.6953125 C-5.2123291 5.03547363 -4.5105957 4.37563477 -3.78759766 3.69580078 C-2.50784464 2.48176576 -1.24732691 1.24732691 0 0 Z " fill="#383530" transform="translate(351,140)"/>
<path d="M0 0 C0.66 0.33 1.32 0.66 2 1 C2.12375 1.598125 2.2475 2.19625 2.375 2.8125 C3.19776186 5.69216652 4.87860635 6.9470384 7 9 C7 9.66 7 10.32 7 11 C10.465 10.505 10.465 10.505 14 10 C13 12 13 12 11.07421875 12.8515625 C10.28660156 13.10679687 9.49898438 13.36203125 8.6875 13.625 C7.90761719 13.88539063 7.12773437 14.14578125 6.32421875 14.4140625 C4 15 4 15 0 15 C0 14.34 0 13.68 0 13 C1.65 12.67 3.3 12.34 5 12 C5 11.34 5 10.68 5 10 C4.34 10 3.68 10 3 10 C2.34 9.01 1.68 8.02 1 7 C0.01 7 -0.98 7 -2 7 C-1.125 1.125 -1.125 1.125 0 0 Z " fill="#1F1D1A" transform="translate(309,182)"/>
<path d="M0 0 C3.37198902 1.46575198 5.64987004 3.35181521 8.25 5.9375 C8.95640625 6.62714844 9.6628125 7.31679687 10.390625 8.02734375 C12 10 12 10 12 13 C7.89552608 12.48223379 6.04300477 10.35372556 3.25 7.4375 C2.45078125 6.61121094 1.6515625 5.78492188 0.828125 4.93359375 C0.22484375 4.29550781 -0.3784375 3.65742188 -1 3 C-0.67 2.01 -0.34 1.02 0 0 Z " fill="#EEEEED" transform="translate(363,133)"/>
<path d="M0 0 C1.01707031 0.29003906 1.01707031 0.29003906 2.0546875 0.5859375 C8.32924309 2.34142258 14.59276664 3.81862292 21 5 C21 5.33 21 5.66 21 6 C18.36 6 15.72 6 13 6 C12.67 6.66 12.34 7.32 12 8 C10.93072266 7.58427734 10.93072266 7.58427734 9.83984375 7.16015625 C4.52688947 5.15081553 -0.33419408 3.50362719 -6 3 C-6 2.67 -6 2.34 -6 2 C-4.02 1.67 -2.04 1.34 0 1 C0 0.67 0 0.34 0 0 Z " fill="#2D2D2D" transform="translate(361,196)"/>
<path d="M0 0 C0.66 0.99 1.32 1.98 2 3 C0.02 5.31 -1.96 7.62 -4 10 C-3.67 10.66 -3.34 11.32 -3 12 C-3.99 13.485 -3.99 13.485 -5 15 C-6.65 13.35 -8.3 11.7 -10 10 C-8.68 10 -7.36 10 -6 10 C-6 9.34 -6 8.68 -6 8 C-7.65 8.33 -9.3 8.66 -11 9 C-10 7 -10 7 -7.75 6.1875 C-4.37865489 4.73169188 -2.46785493 2.67938535 0 0 Z " fill="#3D3B36" transform="translate(373,122)"/>
<path d="M0 0 C0.66 0.99 1.32 1.98 2 3 C-3.94 8.445 -3.94 8.445 -10 14 C-11.32 13.34 -12.64 12.68 -14 12 C-12.98679687 11.20335937 -12.98679687 11.20335937 -11.953125 10.390625 C-11.06109375 9.68421875 -10.1690625 8.9778125 -9.25 8.25 C-8.36828125 7.55390625 -7.4865625 6.8578125 -6.578125 6.140625 C-4.24152752 4.20054103 -2.1061438 2.18487814 0 0 Z " fill="#36332F" transform="translate(333,169)"/>
<path d="M0 0 C0.99 0.33 1.98 0.66 3 1 C-5.92250923 10.12177122 -5.92250923 10.12177122 -10 13 C-10.66 13 -11.32 13 -12 13 C-10.44997253 9.11602311 -7.99523379 6.97020381 -4.875 4.25 C-3.96492188 3.45078125 -3.05484375 2.6515625 -2.1171875 1.828125 C-1.06917969 0.92320312 -1.06917969 0.92320312 0 0 Z " fill="#272420" transform="translate(331,159)"/>
<path d="M0 0 C1.32 0.66 2.64 1.32 4 2 C4 2.66 4 3.32 4 4 C4.66 4 5.32 4 6 4 C6 4.66 6 5.32 6 6 C1.56923077 8.09230769 1.56923077 8.09230769 -1.3125 7.625 C-1.869375 7.41875 -2.42625 7.2125 -3 7 C-2.01 4.69 -1.02 2.38 0 0 Z " fill="#E4E3E2" transform="translate(308,188)"/>
<path d="M0 0 C-0.99 0.33 -1.98 0.66 -3 1 C-2.67 1.66 -2.34 2.32 -2 3 C-3.40945366 3.56016748 -4.8280031 4.09748502 -6.25 4.625 C-7.43335938 5.07746094 -7.43335938 5.07746094 -8.640625 5.5390625 C-11.49917715 6.09752136 -12.58959839 5.53690745 -15 4 C-13.25705322 3.13153169 -11.50531337 2.28069373 -9.75 1.4375 C-8.77546875 0.96183594 -7.8009375 0.48617187 -6.796875 -0.00390625 C-3.90143703 -1.03510273 -2.80033839 -1.11346788 0 0 Z " fill="#2F2E2C" transform="translate(332,199)"/>
<path d="M0 0 C0.66 0.33 1.32 0.66 2 1 C0.4169423 5.2742558 -2.50568404 7.26531794 -6 10 C-6.33 9.01 -6.66 8.02 -7 7 C-4.69 4.69 -2.38 2.38 0 0 Z " fill="#393632" transform="translate(351,140)"/>
<path d="M0 0 C0 0.66 0 1.32 0 2 C-3.4019487 4.09350689 -6.05272412 4.17942163 -10 4 C-10.33 3.01 -10.66 2.02 -11 1 C-3.375 0 -3.375 0 0 0 Z " fill="#1A1918" transform="translate(385,201)"/>
<path d="M0 0 C3.465 1.98 3.465 1.98 7 4 C7 5.32 7 6.64 7 8 C3.74456771 7.65120368 2.98126893 6.97866739 0.75 4.4375 C-0.11625 3.2309375 -0.11625 3.2309375 -1 2 C-0.67 1.34 -0.34 0.68 0 0 Z " fill="#272523" transform="translate(315,178)"/>
<path d="M0 0 C2.31 1.98 4.62 3.96 7 6 C6.67 7.32 6.34 8.64 6 10 C4.98808455 9.09650406 3.99081074 8.17659153 3 7.25 C2.1646875 6.48429688 2.1646875 6.48429688 1.3125 5.703125 C0 4 0 4 0 0 Z " fill="#242420" transform="translate(369,134)"/>
<path d="M0 0 C1.61648438 0.30550781 1.61648438 0.30550781 3.265625 0.6171875 C4.08546875 0.78476563 4.9053125 0.95234375 5.75 1.125 C5.75 1.455 5.75 1.785 5.75 2.125 C3.11 2.125 0.47 2.125 -2.25 2.125 C-2.58 2.785 -2.91 3.445 -3.25 4.125 C-5.56 3.135 -7.87 2.145 -10.25 1.125 C-6.60570204 -1.26325352 -4.1806564 -0.81795451 0 0 Z " fill="#4A494A" transform="translate(376.25,199.875)"/>
<path d="M0 0 C1.32 0 2.64 0 4 0 C2.68775452 3.93673644 1.08089673 6.22719294 -2 9 C-3 6 -3 6 -1.5625 2.8125 C-1.046875 1.884375 -0.53125 0.95625 0 0 Z " fill="#3A3833" transform="translate(403,180)"/>
<path d="M0 0 C0.99 0.33 1.98 0.66 3 1 C1.02 3.31 -0.96 5.62 -3 8 C-3.66 7.67 -4.32 7.34 -5 7 C-3.70700306 4.11562221 -2.34058637 2.12780579 0 0 Z " fill="#3A3733" transform="translate(340,176)"/>
<path d="M0 0 C0.99 0.99 1.98 1.98 3 3 C2.34 4.32 1.68 5.64 1 7 C0.01 7 -0.98 7 -2 7 C-2.66 6.34 -3.32 5.68 -4 5 C-3.01 5 -2.02 5 -1 5 C-0.67 3.35 -0.34 1.7 0 0 Z " fill="#45433F" transform="translate(376,141)"/>
<path d="M0 0 C2.30019361 3.45029042 2.43132515 4.94554358 2 9 C1.01 9.66 0.02 10.32 -1 11 C-1.33 8.36 -1.66 5.72 -2 3 C-1.67 3.66 -1.34 4.32 -1 5 C-0.67 3.35 -0.34 1.7 0 0 Z " fill="#3D3D3A" transform="translate(409,141)"/>
<path d="M0 0 C0.99 0.33 1.98 0.66 3 1 C2.0479279 2.00596297 1.08812654 3.00461563 0.125 4 C-0.40867187 4.556875 -0.94234375 5.11375 -1.4921875 5.6875 C-3 7 -3 7 -5 7 C-5 6.01 -5 5.02 -5 4 C-2.6875 1.75 -2.6875 1.75 0 0 Z " fill="#22201A" transform="translate(339,164)"/>
<path d="M0 0 C0.66 0.33 1.32 0.66 2 1 C0.63016497 4.16115776 0.0109362 4.9927092 -3 7 C-3.66 6.34 -4.32 5.68 -5 5 C-3.35 3.35 -1.7 1.7 0 0 Z " fill="#383530" transform="translate(357,147)"/>
<path d="M0 0 C-2.12780579 2.34058637 -4.11562221 3.70700306 -7 5 C-7 3.68 -7 2.36 -7 1 C-4.53721199 -0.231394 -2.7204945 -0.07159196 0 0 Z " fill="#191715" transform="translate(321,204)"/>
<path d="M0 0 C0.66 0 1.32 0 2 0 C1.75 2.375 1.75 2.375 1 5 C-1.0625 6.3125 -1.0625 6.3125 -3 7 C-2.38722388 4.03824877 -1.74627478 2.61941217 0 0 Z " fill="#272421" transform="translate(399,187)"/>
<path d="M0 0 C0 0.66 0 1.32 0 2 C-1.32 2 -2.64 2 -4 2 C-4.33 2.99 -4.66 3.98 -5 5 C-6.32 4.67 -7.64 4.34 -9 4 C-6.19632015 0.92930303 -4.26207314 0 0 0 Z " fill="#1E1D1A" transform="translate(367,130)"/>
<path d="M0 0 C1.65 0 3.3 0 5 0 C4.01 1.485 4.01 1.485 3 3 C-0.625 3.6875 -0.625 3.6875 -4 4 C-3.67 3.34 -3.34 2.68 -3 2 C-2.01 2 -1.02 2 0 2 C0 1.34 0 0.68 0 0 Z " fill="#110F0E" transform="translate(332,197)"/>
<path d="M0 0 C1.485 0.99 1.485 0.99 3 2 C3.6875 5.625 3.6875 5.625 4 9 C3.34 9 2.68 9 2 9 C0.14223235 5.86501708 -0.20140476 3.62528568 0 0 Z " fill="#10100F" transform="translate(406,137)"/>
<path d="M0 0 C1.65 1.32 3.3 2.64 5 4 C4.67 5.32 4.34 6.64 4 8 C2.35 5.69 0.7 3.38 -1 1 C-0.67 0.67 -0.34 0.34 0 0 Z " fill="#1A1A16" transform="translate(396,121)"/>
<path d="M0 0 C0.66 0.99 1.32 1.98 2 3 C1.125 5.6875 1.125 5.6875 0 8 C-0.99 8 -1.98 8 -3 8 C-1.125 2.25 -1.125 2.25 0 0 Z " fill="#453F3A" transform="translate(306,187)"/>
<path d="M0 0 C0.66 0.66 1.32 1.32 2 2 C0.37660195 3.70884005 -1.29319053 5.37446717 -3 7 C-3.66 7 -4.32 7 -5 7 C-3.70700306 4.11562221 -2.34058637 2.12780579 0 0 Z " fill="#1E1B16" transform="translate(334,182)"/>
<path d="M0 0 C0.66 0.33 1.32 0.66 2 1 C-1.75 6.875 -1.75 6.875 -4 8 C-3.50168276 4.31245243 -2.89932357 2.39509338 0 0 Z " fill="#3A3732" transform="translate(361,157)"/>
<path d="M0 0 C-1.39332574 3.36720387 -2.9789286 4.9859524 -6 7 C-5.37162381 3.35541809 -4.14650034 0 0 0 Z " fill="#211E18" transform="translate(345,148)"/>
</svg>
