<?xml version="1.0" encoding="UTF-8"?>
<svg version="1.1" xmlns="http://www.w3.org/2000/svg" width="500" height="500">
<path d="M0 0 C165 0 330 0 500 0 C500 165 500 330 500 500 C335 500 170 500 0 500 C0 335 0 170 0 0 Z " fill="#000000" transform="translate(0,0)"/>
<path d="M0 0 C1.47606451 0.30698049 2.95528563 0.59923919 4.4375 0.875 C23.16134026 5.03209811 39.88990812 15.51694231 51 31.0625 C57.18358374 39.68922704 64.32822957 47.02325145 75.01953125 49.58984375 C91.04230097 51.79481206 102.70808602 49.44548395 116.0625 39.8125 C117.31740234 38.83216797 117.31740234 38.83216797 118.59765625 37.83203125 C130.04959767 29.0987621 143.03370208 27.47037494 157.06591797 28.58740234 C162.10119798 29.2954755 166.74940873 30.78339076 171.5 32.5625 C172.79828735 33.04541504 172.79828735 33.04541504 174.12280273 33.53808594 C181.69959772 36.69127836 186.27466611 41.72287261 190 49 C190.77284029 51.08133884 191.47886893 53.1884077 192.125 55.3125 C192.62386719 56.91544922 192.62386719 56.91544922 193.1328125 58.55078125 C194.97573527 65.88096505 195.14186966 73.03314313 195.11352539 80.546875 C195.11367142 81.57216812 195.11381744 82.59746124 195.1139679 83.65382385 C195.11327511 87.01923795 195.10551253 90.38459566 195.09765625 93.75 C195.09578982 96.09269175 195.09436698 98.43538389 195.09336853 100.77807617 C195.0895611 106.9265044 195.07974602 113.07490879 195.06866455 119.22332764 C195.05660781 126.60981249 195.05203974 133.99630535 195.04621124 141.38279724 C195.03653328 152.58854805 195.01736429 163.7942466 195 175 C179.16 175 163.32 175 147 175 C146.96261719 168.29558594 146.92523438 161.59117187 146.88671875 154.68359375 C146.85643628 150.4316151 146.82528655 146.17967818 146.79101562 141.92773438 C146.73672373 135.18158078 146.68561223 128.43550971 146.65356445 121.68920898 C146.6275204 116.24907253 146.58710972 110.80921374 146.53681374 105.36924934 C146.52015257 103.29571046 146.50863363 101.22212356 146.50238609 99.14852715 C146.49273703 96.23991795 146.46466753 93.33201791 146.43237305 90.42358398 C146.43452568 89.14288025 146.43452568 89.14288025 146.4367218 87.83630371 C146.33292706 81.20907212 145.02580364 76.54672457 140.8125 71.25 C134.17802138 65.9424171 127.71387216 65.38545872 119.4140625 65.58984375 C112.91524493 66.37059414 108.19884389 69.14259502 104.0625 74.1875 C98.22502119 83.99775235 99.65420645 96.78806654 99.5859375 107.7890625 C99.56720197 109.70291964 99.54762683 111.61676873 99.5272522 113.53060913 C99.47617678 118.53801704 99.43642026 123.54545166 99.39910889 128.55297852 C99.35183192 134.57714076 99.29034055 140.60117303 99.23126221 146.62522888 C99.14335016 155.75009941 99.07337113 164.87494883 99 174 C83.82 174 68.64 174 53 174 C52.67 164.43 52.34 154.86 52 145 C50.68 144.67 49.36 144.34 48 144 C45.54621273 146.03417388 45.54621273 146.03417388 43.125 148.875 C37.15400626 155.27087665 30.53094813 159.5777572 23 164 C21.89269531 164.67804688 20.78539062 165.35609375 19.64453125 166.0546875 C15.60163109 168.34926094 11.35029457 169.77054762 6.9375 171.1875 C6.16083984 171.44724609 5.38417969 171.70699219 4.58398438 171.97460938 C-3.95438762 174.77253483 -11.90843497 175.21472073 -20.87329102 175.24023438 C-22.90098931 175.24982727 -24.92762184 175.28084804 -26.95507812 175.3125 C-39.76621174 175.41890347 -51.93461874 173.5286247 -63.75 168.3125 C-64.55219971 167.96582275 -65.35439941 167.61914551 -66.1809082 167.26196289 C-72.78310315 164.30534806 -78.46410362 160.67180278 -84 156 C-84.69996094 155.44828125 -85.39992188 154.8965625 -86.12109375 154.328125 C-94.59074696 147.393906 -101.11852668 138.74581866 -106 129 C-106.41894531 128.25621094 -106.83789062 127.51242187 -107.26953125 126.74609375 C-117.93268246 107.19161404 -118.84709168 81.41894839 -113.2578125 60.1796875 C-106.33070703 37.19150564 -92.47768903 19.56705768 -71.46899414 7.74804688 C-50.60231069 -3.38386163 -22.70661209 -7.36032807 0 0 Z " fill="#FCFCFC" transform="translate(200,178)"/>
<path d="M0 0 C8.13470028 3.984343 14.80344373 12.57839957 18.16796875 20.8828125 C22.98731314 36.20869694 22.7301945 51.31754936 16 66 C14.25202095 69.25104895 12.30199892 72.11966637 10 75 C9.47664062 75.69609375 8.95328125 76.3921875 8.4140625 77.109375 C3.25177163 83.55617956 -3.32248974 88.67921804 -11.625 90.125 C-15.68229159 90.34604752 -18.37981558 89.24442423 -21.78515625 87.10546875 C-27.72280924 84.14187828 -33.86332641 83.66435928 -40.375 83.75 C-41.4897168 83.75906372 -41.4897168 83.75906372 -42.62695312 83.76831055 C-48.26709243 83.86972979 -53.55995406 84.44155267 -59 86 C-59.76570313 86.21785156 -60.53140625 86.43570313 -61.3203125 86.66015625 C-68.47580724 88.87957241 -74.56927975 91.73319811 -80.375 96.5 C-89.70101022 104.01889405 -100.29119099 105.78058727 -112 105 C-119.66391039 103.76563567 -124.66428156 98.25040898 -130 93 C-130.65504517 92.50114792 -131.31009033 92.00229584 -131.98498535 91.48832703 C-135.44648596 88.61617546 -137.68023771 86.3944658 -138.70458984 81.92732239 C-138.92441019 78.21876013 -138.89982603 74.58822299 -138.78125 70.875 C-138.76630276 69.518833 -138.75492747 68.16262238 -138.74694824 66.80639648 C-138.71660523 63.26082118 -138.63821236 59.71792685 -138.54931641 56.17340088 C-138.46702935 52.54696569 -138.43040602 48.92007821 -138.390625 45.29296875 C-138.3094356 38.19295578 -138.15287672 31.10027435 -138 24 C-122.49 24 -106.98 24 -91 24 C-90.67 42.15 -90.34 60.3 -90 79 C-87.36 73.39 -84.72 67.78 -82 62 C-79.56793647 59.13363941 -77.82794851 57.22240545 -75 55 C-73.72617276 53.87839111 -72.45547618 52.75321929 -71.1875 51.625 C-70.18396484 50.75875 -70.18396484 50.75875 -69.16015625 49.875 C-65.91764936 47.06052748 -62.7375359 44.17804835 -59.55078125 41.30078125 C-57.92672663 39.8358989 -56.29946215 38.37456169 -54.66796875 36.91796875 C-48.75197397 31.62987392 -42.94436847 26.23375033 -37.17700195 20.78442383 C-33.49778689 17.32581653 -29.96187864 14.13052076 -25.56640625 11.59765625 C-21.74417613 9.21821619 -18.67542641 6.12994559 -15.40234375 3.05859375 C-10.22145793 -1.38096207 -6.50835056 -1.52735372 0 0 Z " fill="#030303" transform="translate(391,116)"/>
<path d="M0 0 C1.02673828 0.40025391 1.02673828 0.40025391 2.07421875 0.80859375 C11.61917231 5.02787577 18.71270618 12.57345014 23 22 C27.71276595 34.5316731 27.84695276 47.65594738 22.5546875 59.89746094 C20.27167878 64.79225267 17.70348497 69.07092203 14 73 C13.51273437 73.53882813 13.02546875 74.07765625 12.5234375 74.6328125 C4.15534547 82.83601602 -8.28217537 85.30311313 -19.58056641 85.31469727 C-31.89328463 85.08094649 -42.27822741 80.72177259 -50.99609375 72.00390625 C-60.90812438 60.38658003 -62.45975158 47.35408699 -61.32958984 32.62060547 C-60.02683833 22.26228346 -55.08236812 12.68161108 -47 6 C-33.32649444 -3.54406475 -15.59355146 -6.3084245 0 0 Z " fill="#020202" transform="translate(193,223)"/>
<path d="M0 0 C8.13470028 3.984343 14.80344373 12.57839957 18.16796875 20.8828125 C22.98731314 36.20869694 22.7301945 51.31754936 16 66 C14.25202095 69.25104895 12.30199892 72.11966637 10 75 C9.47664062 75.69609375 8.95328125 76.3921875 8.4140625 77.109375 C3.25177163 83.55617956 -3.32248974 88.67921804 -11.625 90.125 C-15.68229159 90.34604752 -18.37981558 89.24442423 -21.78515625 87.10546875 C-27.72280924 84.14187828 -33.86332641 83.66435928 -40.375 83.75 C-41.4897168 83.75906372 -41.4897168 83.75906372 -42.62695312 83.76831055 C-48.26709243 83.86972979 -53.55995406 84.44155267 -59 86 C-59.76570313 86.21785156 -60.53140625 86.43570313 -61.3203125 86.66015625 C-68.47580724 88.87957241 -74.56927975 91.73319811 -80.375 96.5 C-89.70101022 104.01889405 -100.29119099 105.78058727 -112 105 C-119.66235875 103.76588558 -124.66288342 98.24856714 -130 93 C-130.58084351 92.57534958 -131.16168701 92.15069916 -131.76013184 91.71318054 C-134.98846645 89.11584872 -136.76399488 87.14389035 -137.61558533 83.0163269 C-137.80987544 79.31628966 -137.78667201 75.67641969 -137.68359375 71.97265625 C-137.67051907 70.61505193 -137.66056372 69.25741433 -137.65357971 67.89976501 C-137.62699857 64.34625194 -137.55837184 60.79477878 -137.48065186 57.24206543 C-137.40872164 53.60892831 -137.3766203 49.9754479 -137.34179688 46.34179688 C-137.27070054 39.22606989 -137.13370215 32.1159256 -137 25 C-122.15 25 -107.3 25 -92 25 C-92 49.42 -92 73.84 -92 99 C-86.22839382 95.73978471 -86.22839382 95.73978471 -81 92 C-77.47629706 89.32707705 -73.99156313 86.92158894 -70 85 C-69.14148438 84.55269531 -68.28296875 84.10539062 -67.3984375 83.64453125 C-55.05213229 78.17600649 -37.56573447 77.1294989 -24.61328125 81.1328125 C-21.68168079 82.32452001 -18.85446857 83.63849361 -16 85 C-9.52995519 86.0783408 -5.19182901 83.64532675 0 80 C9.03684584 72.55363903 15.23572897 61.60347484 17 50 C17.87597256 34.6199434 15.90016926 21.46071616 6.0625 9.125 C3.34645583 6.14566584 0.8971372 4.2725346 -3 3 C-8.63574549 3.28510242 -11.63936386 4.71008412 -15.9375 8.3125 C-16.89527344 9.09238281 -17.85304688 9.87226562 -18.83984375 10.67578125 C-21.45385438 12.9594821 -21.45385438 12.9594821 -21 17 C-18.77950096 19.7009579 -16.34451325 22.09284522 -13.87109375 24.5625 C-12 27 -12 27 -11.9375 29.04296875 C-13.39504555 31.72763905 -15.24729595 33.32248491 -17.5625 35.3125 C-18.47 36.10140625 -19.3775 36.8903125 -20.3125 37.703125 C-21.199375 38.46109375 -22.08625 39.2190625 -23 40 C-24.35545803 41.18602578 -25.70974868 42.37338795 -27.0625 43.5625 C-27.69285156 44.11164063 -28.32320313 44.66078125 -28.97265625 45.2265625 C-32.66957793 48.46047858 -36.33314248 51.732083 -40 55 C-41.485 54.01 -41.485 54.01 -43 53 C-38.18808428 48.07559794 -33.29012124 43.40843437 -28 39 C-28.33 37.35 -28.66 35.7 -29 34 C-32.19183729 34.59108098 -33.92445635 35.50806706 -36.3125 37.6875 C-36.99957031 38.31011719 -37.68664062 38.93273437 -38.39453125 39.57421875 C-42.42866103 43.33013268 -46.45993366 47.08905496 -50.48266602 50.85717773 C-62.11761753 61.74507836 -62.11761753 61.74507836 -67 65 C-67 61 -67 61 -65.68994141 59.31176758 C-65.08327637 58.76157959 -64.47661133 58.2113916 -63.8515625 57.64453125 C-63.1802832 57.02618408 -62.50900391 56.40783691 -61.81738281 55.77075195 C-61.09389648 55.12452881 -60.37041016 54.47830566 -59.625 53.8125 C-58.89635742 53.14629639 -58.16771484 52.48009277 -57.41699219 51.79370117 C-55.28775961 49.8513302 -53.14608264 47.92371745 -51 46 C-49.95020659 45.05243137 -48.90068461 44.10456183 -47.8515625 43.15625 C-46.24495649 41.7088572 -44.63387725 40.2663912 -43.015625 38.83203125 C-41.58066275 37.52777293 -40.19963117 36.16311799 -38.859375 34.76171875 C-37 33 -37 33 -35 33 C-35.49831724 29.31245243 -36.10067643 27.39509338 -39 25 C-38.01 24.34 -37.02 23.68 -36 23 C-36 23.66 -36 24.32 -36 25 C-35.41347656 25.25523437 -34.82695312 25.51046875 -34.22265625 25.7734375 C-31.10048777 27.49639164 -29.07362043 29.93079285 -26.68359375 32.5390625 C-24.99387231 34.32769871 -24.99387231 34.32769871 -22 34 C-23.29097861 29.26641178 -26.03841543 26.77280539 -29.5390625 23.55078125 C-31 22 -31 22 -31 20 C-31.66 19.67 -32.32 19.34 -33 19 C-31.43313858 15.7792293 -30.50324468 14.24593596 -27.234375 12.6484375 C-23.66425944 10.82888585 -21.26438431 8.70072809 -18.375 5.9375 C-12.03632316 -0.10821278 -8.61504838 -2.02174515 0 0 Z " fill="#FDFDFD" transform="translate(391,116)"/>
<path d="M0 0 C0.99 1.485 0.99 1.485 2 3 C3.13005332 4.32611077 4.27735228 5.63763557 5.4375 6.9375 C6.63648787 8.28150584 7.82420448 9.63565821 9 11 C9.58910156 11.68191406 10.17820312 12.36382812 10.78515625 13.06640625 C11.18605469 13.70449219 11.58695312 14.34257812 12 15 C11.67 15.99 11.34 16.98 11 18 C7.18384668 17.44507838 5.53605107 15.8312837 2.9375 13.0625 C0.66062286 10.65451669 -1.22254228 8.85163848 -4 7 C-4 7.66 -4 8.32 -4 9 C-3.484375 9.45375 -2.96875 9.9075 -2.4375 10.375 C-1.963125 10.91125 -1.48875 11.4475 -1 12 C-1.25485666 14.57776897 -1.77889207 15.76593437 -3.56640625 17.65820312 C-4.22511719 18.19380859 -4.88382812 18.72941406 -5.5625 19.28125 C-8.44899856 21.69438338 -11.26451975 24.13493994 -14 26.71875 C-14.66 27.34136719 -15.32 27.96398437 -16 28.60546875 C-16.66 29.23066406 -17.32 29.85585937 -18 30.5 C-23.232183 35.4562671 -28.54359947 40.2909522 -34 45 C-33.67 45.66 -33.34 46.32 -33 47 C-32.5153125 46.50371094 -32.030625 46.00742188 -31.53125 45.49609375 C-27.59762025 41.5095113 -23.59059095 37.70329382 -19.33984375 34.05859375 C-17.46738623 32.41120625 -15.63629146 30.73945922 -13.81640625 29.03515625 C-13.24946045 28.5050293 -12.68251465 27.97490234 -12.09838867 27.42871094 C-10.97678287 26.37685793 -9.8582807 25.32168239 -8.7434082 24.26269531 C-5.3576163 21.09301779 -1.92741416 18.47085065 2 16 C3.32 17.32 4.64 18.64 6 20 C4.15862779 25.10673894 -0.47440091 28.16699993 -4.4765625 31.578125 C-6.05640975 32.97459712 -7.53606392 34.48245499 -9 36 C-9 37.32 -9 38.64 -9 40 C-10.29296875 41.5 -10.29296875 41.5 -12.1875 43 C-14.92831268 45.24027419 -17.57077276 47.51548288 -20.109375 49.98046875 C-31.12000596 60.64477126 -31.12000596 60.64477126 -39 63 C-40.15113281 63.36609375 -41.30226563 63.7321875 -42.48828125 64.109375 C-47.89228719 65.74797285 -52.31499323 67 -58 67 C-58 71.62 -58 76.24 -58 81 C-57.01 81.495 -57.01 81.495 -56 82 C-56.99 82 -57.98 82 -59 82 C-59 57.58 -59 33.16 -59 8 C-73.85 8 -88.7 8 -104 8 C-104 27.8 -104 47.6 -104 68 C-104.33 68 -104.66 68 -105 68 C-105 47.87 -105 27.74 -105 7 C-89.49 7 -73.98 7 -58 7 C-57.67 25.15 -57.34 43.3 -57 62 C-54.36 56.39 -51.72 50.78 -49 45 C-46.56793647 42.13363941 -44.82794851 40.22240545 -42 38 C-40.72617276 36.87839111 -39.45547618 35.75321929 -38.1875 34.625 C-37.18396484 33.75875 -37.18396484 33.75875 -36.16015625 32.875 C-32.91904052 30.06173499 -29.74030862 27.18046097 -26.5546875 24.3046875 C-24.91710099 22.8273541 -23.27672147 21.35310732 -21.6328125 19.8828125 C-14.33382765 13.34962279 -7.16475096 6.67953007 0 0 Z " fill="#D5D7DA" transform="translate(358,133)"/>
<path d="M0 0 C8.13470028 3.984343 14.80344373 12.57839957 18.16796875 20.8828125 C22.98731314 36.20869694 22.7301945 51.31754936 16 66 C14.25202095 69.25104895 12.30199892 72.11966637 10 75 C9.47664063 75.69609375 8.95328125 76.3921875 8.4140625 77.109375 C3.25177163 83.55617956 -3.32248974 88.67921804 -11.625 90.125 C-15.68229159 90.34604752 -18.37981558 89.24442423 -21.78515625 87.10546875 C-27.72280924 84.14187828 -33.86332641 83.66435928 -40.375 83.75 C-41.4897168 83.75906372 -41.4897168 83.75906372 -42.62695312 83.76831055 C-48.26709243 83.86972979 -53.55995406 84.44155267 -59 86 C-60.14855469 86.32677734 -60.14855469 86.32677734 -61.3203125 86.66015625 C-70.52104115 89.51394158 -77.57882989 93.88440612 -85 100 C-85.99 99.01 -86.98 98.02 -88 97 C-75.1590106 87.43311459 -75.1590106 87.43311459 -70 85 C-69.14535156 84.55527344 -68.29070312 84.11054688 -67.41015625 83.65234375 C-55.06435456 78.17379887 -37.56856143 77.12862515 -24.61328125 81.1328125 C-21.68168079 82.32452001 -18.85446857 83.63849361 -16 85 C-9.52995519 86.0783408 -5.19182901 83.64532675 0 80 C9.03684584 72.55363903 15.23572897 61.60347484 17 50 C17.87597256 34.6199434 15.90016926 21.46071616 6.0625 9.125 C3.34645583 6.14566584 0.8971372 4.2725346 -3 3 C-8.63574549 3.28510242 -11.63936386 4.71008412 -15.9375 8.3125 C-16.89527344 9.09238281 -17.85304688 9.87226562 -18.83984375 10.67578125 C-21.45385438 12.9594821 -21.45385438 12.9594821 -21 17 C-18.77950096 19.7009579 -16.34451325 22.09284522 -13.87109375 24.5625 C-12 27 -12 27 -11.9375 29.04296875 C-13.39504555 31.72763905 -15.24729595 33.32248491 -17.5625 35.3125 C-18.47 36.10140625 -19.3775 36.8903125 -20.3125 37.703125 C-21.199375 38.46109375 -22.08625 39.2190625 -23 40 C-24.35545803 41.18602578 -25.70974868 42.37338795 -27.0625 43.5625 C-27.69285156 44.11164063 -28.32320313 44.66078125 -28.97265625 45.2265625 C-32.66957793 48.46047858 -36.33314248 51.732083 -40 55 C-40.99 54.34 -41.98 53.68 -43 53 C-38.18808428 48.07559794 -33.29012124 43.40843437 -28 39 C-28.33 37.35 -28.66 35.7 -29 34 C-32.19183729 34.59108098 -33.92445635 35.50806706 -36.3125 37.6875 C-37.34310547 38.62142578 -37.34310547 38.62142578 -38.39453125 39.57421875 C-42.42866103 43.33013268 -46.45993366 47.08905496 -50.48266602 50.85717773 C-62.11761753 61.74507836 -62.11761753 61.74507836 -67 65 C-67 61 -67 61 -65.68994141 59.31176758 C-65.08327637 58.76157959 -64.47661133 58.2113916 -63.8515625 57.64453125 C-63.1802832 57.02618408 -62.50900391 56.40783691 -61.81738281 55.77075195 C-61.09389648 55.12452881 -60.37041016 54.47830566 -59.625 53.8125 C-58.89635742 53.14629639 -58.16771484 52.48009277 -57.41699219 51.79370117 C-55.28775961 49.8513302 -53.14608264 47.92371745 -51 46 C-49.95020659 45.05243137 -48.90068461 44.10456183 -47.8515625 43.15625 C-46.24495649 41.7088572 -44.63387725 40.2663912 -43.015625 38.83203125 C-41.58066275 37.52777293 -40.19963117 36.16311799 -38.859375 34.76171875 C-37 33 -37 33 -35 33 C-35.49831724 29.31245243 -36.10067643 27.39509338 -39 25 C-38.01 24.34 -37.02 23.68 -36 23 C-36 23.66 -36 24.32 -36 25 C-35.12021484 25.38285156 -35.12021484 25.38285156 -34.22265625 25.7734375 C-31.10048777 27.49639164 -29.07362043 29.93079285 -26.68359375 32.5390625 C-24.99387231 34.32769871 -24.99387231 34.32769871 -22 34 C-23.29097861 29.26641178 -26.03841543 26.77280539 -29.5390625 23.55078125 C-31 22 -31 22 -31 20 C-31.66 19.67 -32.32 19.34 -33 19 C-31.43313858 15.7792293 -30.50324468 14.24593596 -27.234375 12.6484375 C-23.66425944 10.82888585 -21.26438431 8.70072809 -18.375 5.9375 C-12.03632316 -0.10821278 -8.61504838 -2.02174515 0 0 Z " fill="#CED1D4" transform="translate(391,116)"/>
<path d="M0 0 C-0.86625 0.37125 -0.86625 0.37125 -1.75 0.75 C-4.07302893 1.90373089 -4.07302893 1.90373089 -5.8125 3.828125 C-8.92073156 6.9141549 -12.43684467 9.39835906 -15.953125 12 C-16.62859375 12.66 -17.3040625 13.32 -18 14 C-18 18.99246245 -16.86548889 19.56677754 -13.4375 23 C-12.59058594 23.845625 -11.74367188 24.69125 -10.87109375 25.5625 C-9 28 -9 28 -8.9375 30.04296875 C-10.39504555 32.72763905 -12.24729595 34.32248491 -14.5625 36.3125 C-15.47 37.10140625 -16.3775 37.8903125 -17.3125 38.703125 C-18.199375 39.46109375 -19.08625 40.2190625 -20 41 C-21.35545803 42.18602578 -22.70974868 43.37338795 -24.0625 44.5625 C-24.69285156 45.11164063 -25.32320313 45.66078125 -25.97265625 46.2265625 C-29.66957793 49.46047858 -33.33314248 52.732083 -37 56 C-37.99 55.34 -38.98 54.68 -40 54 C-35.18808428 49.07559794 -30.29012124 44.40843437 -25 40 C-25.33 38.35 -25.66 36.7 -26 35 C-29.19183729 35.59108098 -30.92445635 36.50806706 -33.3125 38.6875 C-33.99957031 39.31011719 -34.68664062 39.93273437 -35.39453125 40.57421875 C-39.42866103 44.33013268 -43.45993366 48.08905496 -47.48266602 51.85717773 C-59.11761753 62.74507836 -59.11761753 62.74507836 -64 66 C-64 62 -64 62 -62.68994141 60.31176758 C-62.08327637 59.76157959 -61.47661133 59.2113916 -60.8515625 58.64453125 C-60.1802832 58.02618408 -59.50900391 57.40783691 -58.81738281 56.77075195 C-58.09389648 56.12452881 -57.37041016 55.47830566 -56.625 54.8125 C-55.89635742 54.14629639 -55.16771484 53.48009277 -54.41699219 52.79370117 C-52.28775961 50.8513302 -50.14608264 48.92371745 -48 47 C-46.95020659 46.05243137 -45.90068461 45.10456183 -44.8515625 44.15625 C-43.24495649 42.7088572 -41.63387725 41.2663912 -40.015625 39.83203125 C-38.58066275 38.52777293 -37.19963117 37.16311799 -35.859375 35.76171875 C-34 34 -34 34 -32 34 C-32.49831724 30.31245243 -33.10067643 28.39509338 -36 26 C-35.01 25.34 -34.02 24.68 -33 24 C-33 24.66 -33 25.32 -33 26 C-32.12021484 26.38285156 -32.12021484 26.38285156 -31.22265625 26.7734375 C-28.10048777 28.49639164 -26.07362043 30.93079285 -23.68359375 33.5390625 C-21.99387231 35.32769871 -21.99387231 35.32769871 -19 35 C-20.29097861 30.26641178 -23.03841543 27.77280539 -26.5390625 24.55078125 C-28 23 -28 23 -28 21 C-28.66 20.67 -29.32 20.34 -30 20 C-28.43313858 16.7792293 -27.50324468 15.24593596 -24.234375 13.6484375 C-20.66425944 11.82888585 -18.26438431 9.70072809 -15.375 6.9375 C-10.11592811 1.92149446 -7.37115306 -0.33505241 0 0 Z " fill="#D9DADD" transform="translate(388,115)"/>
<path d="M0 0 C0.99 0.33 1.98 0.66 3 1 C4.1875 3.5625 4.1875 3.5625 5 6 C-3.91439376 14.43156957 -12.83033669 22.84571679 -22 31 C-23.87590283 32.68649632 -25.75091005 34.37398939 -27.625 36.0625 C-29.8125 38.03125 -29.8125 38.03125 -32 40 C-34.62187494 38.95125002 -35.79371361 38.35068687 -37.25 35.875 C-37.4975 35.25625 -37.745 34.6375 -38 34 C-26.46425212 23.3678857 -26.46425212 23.3678857 -22.0625 19.5625 C-17.83062841 15.89961955 -13.74189862 12.08449391 -9.65454102 8.26196289 C-2.96011061 2.03223948 -2.96011061 2.03223948 0 0 Z " fill="#09090A" transform="translate(359,149)"/>
<path d="M0 0 C1.9375 0.8125 1.9375 0.8125 4 2 C4.495 3.485 4.495 3.485 5 5 C3.89388002 6.10611998 2.7873709 7.2118519 1.6796875 8.31640625 C0.42982266 9.56917776 -0.81402751 10.82795574 -2.0546875 12.08984375 C-6.11432921 16.19865068 -10.22608661 20.14733512 -14.6171875 23.8984375 C-16.61772729 25.662848 -18.56732116 27.45963267 -20.5078125 29.2890625 C-21.13341064 29.8778418 -21.75900879 30.46662109 -22.40356445 31.07324219 C-23.66100962 32.26008774 -24.91485613 33.45075942 -26.16479492 34.64550781 C-27.03648315 35.46680176 -27.03648315 35.46680176 -27.92578125 36.3046875 C-28.44567627 36.79952637 -28.96557129 37.29436523 -29.5012207 37.80419922 C-31 39 -31 39 -34 40 C-35.32 38.35 -36.64 36.7 -38 35 C-24.02382401 21.94640866 -24.02382401 21.94640866 -18.140625 16.89453125 C-16.30875428 15.27325881 -14.51795986 13.62297446 -12.734375 11.94921875 C-12.15051025 11.40273682 -11.56664551 10.85625488 -10.96508789 10.29321289 C-9.79896004 9.1988369 -8.63654561 8.10048765 -7.47827148 6.99780273 C-5.00179646 4.67631697 -3.26037682 3.08679227 0 2 C0 1.34 0 0.68 0 0 Z " fill="#0E0E0E" transform="translate(352,142)"/>
<path d="M0 0 C15.51 0 31.02 0 47 0 C47.33 18.15 47.66 36.3 48 55 C49.32 52.36 50.64 49.72 52 47 C52.33 47.66 52.66 48.32 53 49 C53.61875 49.144375 54.2375 49.28875 54.875 49.4375 C57.39658526 50.10497845 58.3855092 50.9818865 60 53 C60 53.66 60 54.32 60 55 C57.05983283 57.94016717 54.88852568 59.22407944 50.8125 59.625 C49.554375 59.74875 48.29625 59.8725 47 60 C47 64.62 47 69.24 47 74 C47.99 74.495 47.99 74.495 49 75 C48.01 75 47.02 75 46 75 C46 50.58 46 26.16 46 1 C31.15 1 16.3 1 1 1 C1 20.8 1 40.6 1 61 C0.67 61 0.34 61 0 61 C0 40.87 0 20.74 0 0 Z " fill="#9C9D9E" transform="translate(253,140)"/>
<path d="M0 0 C0.66 0.99 1.32 1.98 2 3 C3.13005332 4.32611077 4.27735228 5.63763557 5.4375 6.9375 C6.63648787 8.28150584 7.82420448 9.63565821 9 11 C9.58910156 11.68191406 10.17820312 12.36382812 10.78515625 13.06640625 C11.18605469 13.70449219 11.58695312 14.34257812 12 15 C11.67 15.99 11.34 16.98 11 18 C7.18384668 17.44507838 5.53605107 15.8312837 2.9375 13.0625 C0.66062286 10.65451669 -1.22254228 8.85163848 -4 7 C-4.26167969 7.598125 -4.52335937 8.19625 -4.79296875 8.8125 C-6.08027253 11.14547772 -7.26547461 12.31679283 -9.3125 14 C-13.09418314 17.1983019 -16.74754935 20.50472528 -20.375 23.875 C-21.49974675 24.91563836 -22.62474561 25.95600432 -23.75 26.99609375 C-24.29785156 27.50253418 -24.84570312 28.00897461 -25.41015625 28.53076172 C-31.39158306 34.05843778 -37.23594393 39.44161439 -44 44 C-44.66 43.34 -45.32 42.68 -46 42 C-33.39624962 30.29926222 -33.39624962 30.29926222 -27.0703125 24.8203125 C-22.30541243 20.63079659 -17.66386457 16.30131717 -13 12 C-12.40300293 11.44957031 -11.80600586 10.89914063 -11.19091797 10.33203125 C-7.45862457 6.89016955 -3.72855721 3.44590852 0 0 Z " fill="#D0D2D6" transform="translate(358,133)"/>
<path d="M0 0 C5.79725898 -0.46378072 8.53668644 0.2653907 13 4 C24.34713288 15.60699089 28.63970406 27.76135259 28.54882812 43.859375 C28.26535291 51.63289525 26.55955576 59.04131916 23 66 C21.515 66.495 21.515 66.495 20 67 C20.44309344 62.92354035 21.17763477 59.42313844 22.5625 55.5625 C26.38862365 43.17942987 24.63636984 28.58630221 18.6875 17.1875 C14.86469783 10.88102098 11.07901703 5.71111291 4 3 C1.26427415 2.30092586 1.26427415 2.30092586 -1 2 C-0.67 1.34 -0.34 0.68 0 0 Z " fill="#DDDEE1" transform="translate(384,116)"/>
<path d="M0 0 C1.16080078 0.00451172 2.32160156 0.00902344 3.51757812 0.01367188 C6.36593934 0.02539353 9.21419222 0.0418024 12.0625 0.0625 C12.0625 0.7225 12.0625 1.3825 12.0625 2.0625 C10.17917969 2.13597656 10.17917969 2.13597656 8.2578125 2.2109375 C-11.49204474 3.05933297 -27.38796563 6.24853186 -42.9375 19.0625 C-43.9275 18.0725 -44.9175 17.0825 -45.9375 16.0625 C-30.37890208 4.47092252 -19.41604639 -0.14349551 0 0 Z " fill="#D5D6D9" transform="translate(348.9375,196.9375)"/>
<path d="M0 0 C0.66 1.32 1.32 2.64 2 4 C1.42894531 4.51046875 0.85789062 5.0209375 0.26953125 5.546875 C-4.68964859 9.99357998 -9.61134795 14.47606494 -14.5 19 C-15.6014857 20.01570829 -16.70304763 21.03133393 -17.8046875 22.046875 C-19.8610065 23.94329939 -21.90678733 25.85010237 -23.9453125 27.765625 C-24.82960938 28.58546875 -25.71390625 29.4053125 -26.625 30.25 C-27.40101563 30.97703125 -28.17703125 31.7040625 -28.9765625 32.453125 C-31 34 -31 34 -34 34 C-32.6737226 31.02674037 -31.26966888 29.05920654 -28.875 26.86328125 C-28.25536377 26.29013184 -27.63572754 25.71698242 -26.99731445 25.12646484 C-26.33820068 24.52785645 -25.67908691 23.92924805 -25 23.3125 C-24.32735107 22.6932666 -23.65470215 22.0740332 -22.96166992 21.43603516 C-18.35947003 17.20823475 -13.72428849 13.01603503 -9.05078125 8.8671875 C-7.60331858 7.5493072 -6.20850768 6.17246522 -4.85546875 4.7578125 C-3 3 -3 3 -1 3 C-0.67 2.01 -0.34 1.02 0 0 Z " fill="#CED0D6" transform="translate(357,146)"/>
<path d="M0 0 C2.16874252 0.50603992 3.99967627 0.99983813 6 2 C6.66 1.34 7.32 0.68 8 0 C9.5358444 1.56877674 11.05331331 3.15556154 12.5625 4.75 C13.83287109 6.07257813 13.83287109 6.07257813 15.12890625 7.421875 C17 10 17 10 16.90625 12.25 C15.70929097 14.56136916 14.38165119 15.07807051 12 16 C12 15.34 12 14.68 12 14 C11.34 14 10.68 14 10 14 C8.37890625 12.35546875 8.37890625 12.35546875 6.5625 10.1875 C4.04400115 7.18813535 4.04400115 7.18813535 1.27734375 4.42578125 C0 3 0 3 0 0 Z " fill="#CDCED1" transform="translate(362,133)"/>
<path d="M0 0 C-0.86625 0.37125 -0.86625 0.37125 -1.75 0.75 C-4.07237332 1.90437829 -4.07237332 1.90437829 -5.81640625 3.82421875 C-8.91331355 6.91004588 -12.38381124 9.44943727 -15.85546875 12.09765625 C-18.72672267 14.64465199 -19.12858763 17.38986305 -20 21 C-21.98 20.01 -23.96 19.02 -26 18 C-26.33 18.99 -26.66 19.98 -27 21 C-27 20.01 -27 19.02 -27 18 C-27.66 17.67 -28.32 17.34 -29 17 C-26.94662096 15.40292741 -24.9374767 13.96454215 -22.671875 12.6796875 C-18.81793474 10.2568888 -15.7122621 7.16451097 -12.40234375 4.05859375 C-8.19028331 0.44923464 -5.54443995 -0.25202 0 0 Z " fill="#D7D8DC" transform="translate(388,115)"/>
<path d="M0 0 C3.39859703 1.46966358 5.64963709 3.38037514 8.25 6 C8.95640625 6.70125 9.6628125 7.4025 10.390625 8.125 C12 10 12 10 12 12 C6.98076923 13.29807692 6.98076923 13.29807692 4 13 C1.19406951 11.14446532 -0.58737046 9.05271639 -2 6 C-1.375 2.5625 -1.375 2.5625 0 0 Z " fill="#171718" transform="translate(311,180)"/>
<path d="M0 0 C-1.08318867 3.24956601 -1.70216017 3.83392636 -4.25 5.9375 C-8.26516474 9.33720153 -12.14307684 12.86095601 -16 16.4375 C-16.58813477 16.98204834 -17.17626953 17.52659668 -17.78222656 18.08764648 C-19.18898277 19.39086709 -20.59461256 20.69530343 -22 22 C-22.33 21.34 -22.66 20.68 -23 20 C-23.66 19.67 -24.32 19.34 -25 19 C-24.29875 18.443125 -23.5975 17.88625 -22.875 17.3125 C-17.50610212 12.99403866 -12.41297246 8.61741815 -7.65625 3.62890625 C-5.09295496 1.10792976 -3.65291913 0 0 0 Z " fill="#D4D6DA" transform="translate(350,170)"/>
<path d="M0 0 C3.10009769 1.38238352 5.28263873 2.98578859 7.6875 5.375 C8.28949219 5.96023437 8.89148438 6.54546875 9.51171875 7.1484375 C11.10135013 9.12608914 11.5905426 10.5214179 12 13 C10.328125 13.80859375 10.328125 13.80859375 8 14 C5.421875 11.91015625 5.421875 11.91015625 2.75 9.0625 C1.85796875 8.12535156 0.9659375 7.18820313 0.046875 6.22265625 C-0.62859375 5.48917969 -1.3040625 4.75570312 -2 4 C-1.34 2.68 -0.68 1.36 0 0 Z " fill="#121313" transform="translate(358,137)"/>
<path d="M0 0 C1.11181641 0.00322266 2.22363281 0.00644531 3.36914062 0.00976562 C4.51962891 0.01814453 5.67011719 0.02652344 6.85546875 0.03515625 C8.02529297 0.03966797 9.19511719 0.04417969 10.40039062 0.04882812 C13.28130233 0.06058695 16.16210919 0.07702199 19.04296875 0.09765625 C19.04296875 0.75765625 19.04296875 1.41765625 19.04296875 2.09765625 C17.82222656 2.15824219 16.60148437 2.21882812 15.34375 2.28125 C5.89715194 2.75901119 -3.53099786 3.3022818 -12.95703125 4.09765625 C-10.95703125 1.09765625 -10.95703125 1.09765625 -8.7043457 0.41625977 C-5.77459442 0.07649922 -2.9495752 -0.01512603 0 0 Z " fill="#F5F5F7" transform="translate(341.95703125,196.90234375)"/>
<path d="M0 0 C4.03314682 0.53651953 5.94451681 2.54201208 8.75 5.375 C9.54921875 6.16648438 10.3484375 6.95796875 11.171875 7.7734375 C13 10 13 10 13 13 C8.96685318 12.46348047 7.05548319 10.45798792 4.25 7.625 C3.45078125 6.83351562 2.6515625 6.04203125 1.828125 5.2265625 C0 3 0 3 0 0 Z " fill="#151516" transform="translate(362,133)"/>
<path d="M0 0 C5.74665235 -0.45973219 8.50591552 0.40473242 13 4 C15.375 6.0625 15.375 6.0625 17 8 C17 8.99 17 9.98 17 11 C14.56740423 9.91884632 12.82043114 8.8409533 10.8125 7.0625 C7.13661602 4.36685175 3.34516526 3.24959001 -1 2 C-0.67 1.34 -0.34 0.68 0 0 Z " fill="#E1E2E4" transform="translate(384,116)"/>
<path d="M0 0 C-0.86625 0.37125 -0.86625 0.37125 -1.75 0.75 C-4.32546462 2.18081368 -5.95127149 3.88918881 -8 6 C-11.88639661 9.57128337 -14.96634113 10.81560968 -20 12 C-14.97910241 4.88706175 -8.77957566 -0.19086034 0 0 Z " fill="#C7C9CC" transform="translate(388,115)"/>
<path d="M0 0 C0.66 0.66 1.32 1.32 2 2 C1.34 3.32 0.68 4.64 0 6 C0.495 6.45375 0.99 6.9075 1.5 7.375 C3 9 3 9 3 11 C3.66 11 4.32 11 5 11 C4.67 11.99 4.34 12.98 4 14 C1.69 14.33 -0.62 14.66 -3 15 C-2.01 14.34 -1.02 13.68 0 13 C-1.00445663 10.75928906 -1.87754985 9.12245015 -3.625 7.375 C-4.07875 6.92125 -4.5325 6.4675 -5 6 C-5 5.34 -5 4.68 -5 4 C-4.01 4 -3.02 4 -2 4 C-1.34 2.68 -0.68 1.36 0 0 Z " fill="#DEE1E2" transform="translate(322,179)"/>
<path d="M0 0 C1.78567383 -0.00386719 1.78567383 -0.00386719 3.60742188 -0.0078125 C5.47430664 0.00378906 5.47430664 0.00378906 7.37890625 0.015625 C9.23999023 0.00402344 9.23999023 0.00402344 11.13867188 -0.0078125 C12.33041016 -0.00523437 13.52214844 -0.00265625 14.75 0 C15.84111084 0.00225586 16.93222168 0.00451172 18.05639648 0.00683594 C20.88424166 0.26049726 22.54114021 0.80228739 24.94140625 2.265625 C24.94140625 3.255625 24.94140625 4.245625 24.94140625 5.265625 C22.63140625 4.935625 20.32140625 4.605625 17.94140625 4.265625 C18.60140625 3.935625 19.26140625 3.605625 19.94140625 3.265625 C19.94140625 2.605625 19.94140625 1.945625 19.94140625 1.265625 C10.37140625 1.595625 0.80140625 1.925625 -9.05859375 2.265625 C-5.56462176 -0.06368966 -4.12862553 0.00854472 0 0 Z " fill="#BEBEBF" transform="translate(341.05859375,195.734375)"/>
<path d="M0 0 C1.7074998 1.28062485 3.37373596 2.61767557 5 4 C5 4.66 5 5.32 5 6 C8.465 5.505 8.465 5.505 12 5 C12 5.99 12 6.98 12 8 C3.96428571 10.27678571 3.96428571 10.27678571 0 9 C0.99 8.67 1.98 8.34 3 8 C1.68 6.02 0.36 4.04 -1 2 C-0.67 1.34 -0.34 0.68 0 0 Z " fill="#D0D1D4" transform="translate(310,187)"/>
<path d="M0 0 C3.78496138 1.51398455 4.0072198 2.0144396 6 6 C3.03 6.66 0.06 7.32 -3 8 C-1.125 2.25 -1.125 2.25 0 0 Z " fill="#1B1B1C" transform="translate(307,189)"/>
<path d="M0 0 C0.66 0 1.32 0 2 0 C2 0.99 2 1.98 2 3 C2.86625 3.37125 2.86625 3.37125 3.75 3.75 C6.38288682 5.2127149 8.12450669 6.63826769 10 9 C9.60546875 11.1328125 9.60546875 11.1328125 9 13 C7.66070495 11.71451591 6.32871357 10.42141845 5 9.125 C4.2575 8.40570313 3.515 7.68640625 2.75 6.9453125 C1 5 1 5 1 3 C0.34 2.67 -0.32 2.34 -1 2 C-0.67 1.34 -0.34 0.68 0 0 Z " fill="#E8E8EB" transform="translate(359,133)"/>
<path d="M0 0 C-0.33 0.33 -0.66 0.66 -1 1 C-0.34 1.66 0.32 2.32 1 3 C-0.43554025 3.50559908 -1.8735202 4.0042749 -3.3125 4.5 C-4.51326172 4.91765625 -4.51326172 4.91765625 -5.73828125 5.34375 C-8 6 -8 6 -11 6 C-10.67 5.34 -10.34 4.68 -10 4 C-10.66 3.67 -11.32 3.34 -12 3 C-10.3789897 2.30314502 -8.75303934 1.61777139 -7.125 0.9375 C-6.22007812 0.55464844 -5.31515625 0.17179688 -4.3828125 -0.22265625 C-2 -1 -2 -1 0 0 Z " fill="#C7C8C9" transform="translate(331,199)"/>
<path d="M0 0 C2.94721162 2.74395564 5.19168608 5.38337216 7 9 C6.67 9.66 6.34 10.32 6 11 C5.01 11 4.02 11 3 11 C1.35 8.03 -0.3 5.06 -2 2 C-1.34 2 -0.68 2 0 2 C0 1.34 0 0.68 0 0 Z " fill="#D0D0D2" transform="translate(401,125)"/>
<path d="M0 0 C0.66 0.33 1.32 0.66 2 1 C0.4169423 5.2742558 -2.50568404 7.26531794 -6 10 C-6 9.34 -6 8.68 -6 8 C-6.66 7.67 -7.32 7.34 -8 7 C-5.36 4.69 -2.72 2.38 0 0 Z " fill="#CBCED2" transform="translate(333,182)"/>
<path d="M0 0 C0.66 0.33 1.32 0.66 2 1 C-2.33333333 5.33333333 -6.66666667 9.66666667 -11 14 C-11 10 -11 10 -8.84765625 7.67578125 C-7.92855469 6.89589844 -7.00945312 6.11601562 -6.0625 5.3125 C-5.14597656 4.52488281 -4.22945313 3.73726562 -3.28515625 2.92578125 C-2.15400391 1.97251953 -2.15400391 1.97251953 -1 1 C-0.67 0.67 -0.34 0.34 0 0 Z " fill="#1D1E1E" transform="translate(333,172)"/>
<path d="M0 0 C1.32 0 2.64 0 4 0 C2.65117186 4.04648443 0.65173931 4.95502599 -3 7 C-3.99 6.67 -4.98 6.34 -6 6 C-4 4 -2 2 0 0 Z " fill="#E3E4E7" transform="translate(317,203)"/>
<path d="M0 0 C0.33 0.66 0.66 1.32 1 2 C1.66 2.268125 2.32 2.53625 3 2.8125 C5 4 5 4 5.75 6.625 C5.8325 7.40875 5.915 8.1925 6 9 C5.01 9 4.02 9 3 9 C2.731875 8.401875 2.46375 7.80375 2.1875 7.1875 C1.01506533 5.02775192 -0.19369282 3.64209744 -2 2 C-1.34 1.34 -0.68 0.68 0 0 Z " fill="#E8EAED" transform="translate(354,139)"/>
<path d="M0 0 C0.66 0.99 1.32 1.98 2 3 C0.35 4.65 -1.3 6.3 -3 8 C-4.32 7.34 -5.64 6.68 -7 6 C-4.69 4.02 -2.38 2.04 0 0 Z " fill="#D0D2D5" transform="translate(362,156)"/>
<path d="M0 0 C0 0.33 0 0.66 0 1 C-6.435 1.495 -6.435 1.495 -13 2 C-11 -1 -11 -1 -8.75 -1.8125 C-5.40902978 -2.04029342 -3.09009195 -1.22166426 0 0 Z " fill="#E0E2E4" transform="translate(342,199)"/>
<path d="M0 0 C0.33 1.32 0.66 2.64 1 4 C-1.97 6.475 -1.97 6.475 -5 9 C-5 5 -5 5 -2.5 2.25 C-1.675 1.5075 -0.85 0.765 0 0 Z " fill="#C8C9CD" transform="translate(329,172)"/>
<path d="M0 0 C0.99 0 1.98 0 3 0 C1.48328036 4.55015893 -2.16891053 6.50057264 -6 9 C-4.4705003 5.55862568 -2.54630448 2.7777867 0 0 Z " fill="#D9DBDF" transform="translate(330,159)"/>
<path d="M0 0 C5.66153846 1.47692308 5.66153846 1.47692308 7.375 4.125 C7.58125 4.74375 7.7875 5.3625 8 6 C1.25 4.375 1.25 4.375 -1 1 C-0.67 0.67 -0.34 0.34 0 0 Z " fill="#E5E5E5" transform="translate(366,198)"/>
<path d="M0 0 C1.485 0.99 1.485 0.99 3 2 C3 2.66 3 3.32 3 4 C3.66 4 4.32 4 5 4 C4.67 5.32 4.34 6.64 4 8 C3.01 7.67 2.02 7.34 1 7 C0.67 4.69 0.34 2.38 0 0 Z " fill="#DBDCE0" transform="translate(369,143)"/>
<path d="M0 0 C0.99 0.33 1.98 0.66 3 1 C4.1875 4.5625 4.1875 4.5625 5 8 C4.01 8.33 3.02 8.66 2 9 C1.34 6.03 0.68 3.06 0 0 Z " fill="#E9E9EB" transform="translate(405,135)"/>
<path d="M0 0 C0.94875 0.04125 1.8975 0.0825 2.875 0.125 C-0.08783313 2.51172669 -3.06770509 4.8603371 -6.125 7.125 C-5.03177966 0.20127119 -5.03177966 0.20127119 0 0 Z " fill="#E1E2E3" transform="translate(248.125,319.875)"/>
<path d="M0 0 C1.1875 1.625 1.1875 1.625 2 4 C0.625 7.25 0.625 7.25 -1 10 C-2.1875 8.375 -2.1875 8.375 -3 6 C-1.625 2.75 -1.625 2.75 0 0 Z " fill="#BFC3C7" transform="translate(305,187)"/>
<path d="M0 0 C2.31 0.33 4.62 0.66 7 1 C6.01 1.66 5.02 2.32 4 3 C5.32 3.66 6.64 4.32 8 5 C5.125 5.125 5.125 5.125 2 5 C1.34 4.34 0.68 3.68 0 3 C0 2.01 0 1.02 0 0 Z " fill="#B3B4B5" transform="translate(373,201)"/>
<path d="M0 0 C0.33 1.32 0.66 2.64 1 4 C-0.65 5.32 -2.3 6.64 -4 8 C-4.66 7.67 -5.32 7.34 -6 7 C-4.02 4.69 -2.04 2.38 0 0 Z " fill="#DADCE1" transform="translate(335,167)"/>
<path d="M0 0 C0 0.99 0 1.98 0 3 C-2.31 3 -4.62 3 -7 3 C-7.33 2.34 -7.66 1.68 -8 1 C-5.10765685 0.17361624 -3.11257569 0 0 0 Z " fill="#E6E7E8" transform="translate(384,202)"/>
<path d="M0 0 C1.32 0.33 2.64 0.66 4 1 C3.67 1.99 3.34 2.98 3 4 C0.69 4.33 -1.62 4.66 -4 5 C-3.01 4.34 -2.02 3.68 -1 3 C-0.67 2.01 -0.34 1.02 0 0 Z " fill="#EFF1F3" transform="translate(323,189)"/>
<path d="M0 0 C-1.65 1.65 -3.3 3.3 -5 5 C-5.33 3.35 -5.66 1.7 -6 0 C-3 -1 -3 -1 0 0 Z " fill="#CBCDD1" transform="translate(372,151)"/>
<path d="M0 0 C0.66 0 1.32 0 2 0 C2.33 1.65 2.66 3.3 3 5 C1.68 5 0.36 5 -1 5 C-0.67 3.35 -0.34 1.7 0 0 Z " fill="#DEE0E4" transform="translate(307,184)"/>
<path d="M0 0 C0 3.12900213 -0.42451317 4.37418862 -2 7 C-2.99 7.495 -2.99 7.495 -4 8 C-3.50168276 4.31245243 -2.89932357 2.39509338 0 0 Z " fill="#C7C9CE" transform="translate(340,162)"/>
</svg>
